<svg width="244" height="588" viewBox="0 0 244 588" fill="none" xmlns="http://www.w3.org/2000/svg">
<path d="M18.45 14.362C22.1822 20.9092 64.2132 76.5501 64.2132 76.5501M18.45 14.362L13 47.8915M18.45 14.362L47.0625 13M64.2132 76.5501C86.4829 103.05 116.948 127.055 157.724 127.055C198.193 127.055 231 109.45 231 87.7337C231 66.0179 198.193 48.4138 157.724 48.4138C121.078 48.4138 87.9528 59.1897 64.2132 76.5501ZM64.2132 76.5501C41.1736 93.3985 26.9738 116.449 26.9738 141.869C26.9738 161.994 35.8731 180.633 51.0124 195.886M51.0124 195.886C74.7013 219.752 113.668 235.326 157.724 235.326C198.193 235.326 231 217.722 231 196.005C231 174.289 198.193 156.687 157.724 156.687C113.668 156.687 74.7013 172.166 51.0124 195.886ZM51.0124 195.886C35.8731 211.045 26.9738 229.57 26.9738 249.572C26.9738 269.521 35.8262 288.001 50.8926 303.138M50.8926 303.138C74.5698 326.925 113.593 342.456 157.724 342.456C198.193 342.456 231 324.855 231 303.138C231 281.422 198.193 263.817 157.724 263.817C113.593 263.817 74.5698 279.349 50.8926 303.138ZM50.8926 303.138C35.8262 318.275 26.9738 336.756 26.9738 356.705C26.9738 376.654 35.8261 395.134 50.8922 410.271M50.8922 410.271C74.5694 434.059 113.593 449.589 157.724 449.589C198.193 449.589 231 431.985 231 410.272C231 388.555 198.193 370.95 157.724 370.95C113.593 370.95 74.5694 386.483 50.8922 410.271ZM50.8922 410.271C35.8261 425.407 26.9738 443.887 26.9738 463.835C26.9738 515.135 85.5121 556.723 157.724 556.723M157.724 556.723L143.916 537.082M157.724 556.723L142.437 575" stroke="#191919" stroke-width="25" stroke-linecap="round" stroke-linejoin="round"/>
</svg>
